<?xml version="1.0" standalone="no"?>
<!DOCTYPE svg PUBLIC "-//W3C//DTD SVG 20010904//EN"
 "http://www.w3.org/TR/2001/REC-SVG-20010904/DTD/svg10.dtd">
<svg version="1.0" xmlns="http://www.w3.org/2000/svg"
 width="500.000000pt" height="500.000000pt" viewBox="0 0 500.000000 500.000000"
 preserveAspectRatio="xMidYMid meet">
<metadata>
Created by potrace 1.11, written by Peter Selinger 2001-2013
</metadata>
<g transform="translate(0.000000,500.000000) scale(0.100000,-0.100000)"
fill="#000000" stroke="none">
<path d="M2306 4189 c-510 -59 -981 -357 -1253 -794 -103 -164 -183 -363 -225
-559 -19 -88 -22 -131 -22 -341 0 -212 2 -252 22 -342 78 -357 242 -649 504
-898 262 -250 567 -396 940 -451 151 -22 418 -15 563 16 549 116 1007 483
1227 984 198 452 192 974 -18 1415 -256 538 -766 903 -1359 971 -102 11 -277
11 -379 -1z m309 -533 c136 -11 299 -71 426 -157 92 -61 160 -121 157 -135 -3
-14 -284 -360 -299 -370 -5 -3 -36 15 -69 40 -217 162 -456 152 -629 -28 -162
-169 -221 -486 -145 -780 49 -192 183 -338 345 -375 157 -36 338 15 466 133
30 27 58 45 62 40 4 -5 74 -89 155 -186 127 -152 146 -180 137 -197 -13 -24
-119 -116 -184 -160 -177 -120 -431 -177 -668 -152 -540 58 -888 418 -949 980
-71 640 253 1172 800 1318 89 24 244 43 300 37 14 -2 57 -5 95 -8z"/>
</g>
</svg>
